<svg xmlns="http://www.w3.org/2000/svg" viewBox="0 0 24 24">
  <linearGradient id="a" gradientUnits="userSpaceOnUse" x1="5.699" y1="2.944" x2="18.426" y2="21.119">
    <stop offset="0" stop-color="#bcc6d1"/>
    <stop offset="1" stop-color="#56687b"/>
  </linearGradient>
  <ellipse fill="url(#a)" stroke="#313843" stroke-width="1.5" stroke-miterlimit="10" cx="12.1" cy="12" rx="11.1" ry="11.1"/>
  <linearGradient id="b" gradientUnits="userSpaceOnUse" x1="9.539" y1="11.843" x2="12.739" y2="16.414">
    <stop offset="0" stop-color="#fff"/>
    <stop offset="1" stop-color="#bee5e9"/>
  </linearGradient>
  <linearGradient id="c" gradientUnits="userSpaceOnUse" x1="5.574" y1="6.181" x2="15.319" y2="20.097">
    <stop offset="0" stop-color="#a8b4bf"/>
    <stop offset=".037" stop-color="#9fabb7"/>
    <stop offset=".196" stop-color="#828f9d"/>
    <stop offset=".365" stop-color="#6f7c8c"/>
    <stop offset=".545" stop-color="#617081"/>
    <stop offset=".744" stop-color="#59697b"/>
    <stop offset="1" stop-color="#576779"/>
  </linearGradient>
  <path fill="url(#b)" stroke="url(#c)" stroke-width=".5" stroke-miterlimit="10" d="M17.5 18.1h-1.3c-.3 0-.7-.3-.7-.7 0 0 .3-3.1-2.8-6.3-2.2-2.6-6.1-2.8-6.1-2.8-.4 0-.6-.2-.6-.6V6.5c0-.3.3-.6.7-.6 0 0 5.5.3 8.3 3.9 2.9 2.7 3.1 7.6 3.1 7.6 0 .4-.1.7-.6.7zM6.7 10.2s3.2.4 5 2.1c1.8 1.7 2.2 5.1 2.2 5.1 0 .3-.1.7-.4.7h-1.3c-.3 0-.5-.3-.5-.7 0 0 .1-2.1-1.6-3.6-1.3-1.1-3.4-1.2-3.4-1.2-.5 0-.7-.3-.7-.6v-1.1c0-.4.2-.7.7-.7zm1 4.4c1 0 1.7.8 1.7 1.7S8.6 18 7.7 18 6 17.3 6 16.3s.8-1.7 1.7-1.7z"/>
</svg>
