<svg xmlns="http://www.w3.org/2000/svg" viewBox="0 0 24 24">
  <linearGradient id="a" gradientUnits="userSpaceOnUse" x1="5.699" y1="2.944" x2="18.426" y2="21.119">
    <stop offset="0" stop-color="#717f90"/>
    <stop offset="1" stop-color="#5d6d7f"/>
  </linearGradient>
  <ellipse fill="url(#a)" stroke="#313843" stroke-width="1.5" stroke-miterlimit="10" cx="12.1" cy="12" rx="11.1" ry="11.1"/>
  <linearGradient id="b" gradientUnits="userSpaceOnUse" x1="7.561" y1="2.458" x2="16.466" y2="21.555">
    <stop offset="0" stop-color="#717f90" stop-opacity="0"/>
    <stop offset=".225" stop-color="#738192" stop-opacity=".225"/>
    <stop offset=".387" stop-color="#7a8697" stop-opacity=".387"/>
    <stop offset=".528" stop-color="#86909f" stop-opacity=".528"/>
    <stop offset=".657" stop-color="#989fac" stop-opacity=".657"/>
    <stop offset=".779" stop-color="#b1b5bf" stop-opacity=".779"/>
    <stop offset=".893" stop-color="#d1d3d8" stop-opacity=".893"/>
    <stop offset="1" stop-color="#fff"/>
  </linearGradient>
  <circle fill="none" stroke="url(#b)" stroke-miterlimit="10" cx="12" cy="12" r="10"/>
  <linearGradient id="c" gradientUnits="userSpaceOnUse" x1="9.539" y1="11.843" x2="12.739" y2="16.414">
    <stop offset="0" stop-color="#fff"/>
    <stop offset="1" stop-color="#bee5e9"/>
  </linearGradient>
  <linearGradient id="d" gradientUnits="userSpaceOnUse" x1="5.574" y1="6.181" x2="15.319" y2="20.097">
    <stop offset="0" stop-color="#a8b4bf"/>
    <stop offset="0" stop-color="#9fabb7"/>
    <stop offset="0" stop-color="#828f9d"/>
    <stop offset="0" stop-color="#6f7c8c"/>
    <stop offset="0" stop-color="#617081"/>
    <stop offset="0" stop-color="#59697b"/>
    <stop offset="0" stop-color="#576779"/>
  </linearGradient>
  <path fill="url(#c)" stroke="url(#d)" stroke-width=".5" stroke-miterlimit="10" d="M17.5 18.1h-1.3c-.3 0-.7-.3-.7-.7 0 0 .3-3.1-2.8-6.3-2.2-2.6-6.1-2.8-6.1-2.8-.4 0-.6-.2-.6-.6V6.5c0-.3.3-.6.7-.6 0 0 5.5.3 8.3 3.9 2.9 2.7 3.1 7.6 3.1 7.6 0 .4-.1.7-.6.7zM6.7 10.2s3.2.4 5 2.1c1.8 1.7 2.2 5.1 2.2 5.1 0 .3-.1.7-.4.7h-1.3c-.3 0-.5-.3-.5-.7 0 0 .1-2.1-1.6-3.6-1.3-1.1-3.4-1.2-3.4-1.2-.5 0-.7-.3-.7-.6v-1.1c0-.4.2-.7.7-.7zm1 4.4c1 0 1.7.8 1.7 1.7S8.6 18 7.7 18 6 17.3 6 16.3s.8-1.7 1.7-1.7z"/>
</svg>
