<svg xmlns="http://www.w3.org/2000/svg" viewBox="0 0 30 30">
  <linearGradient id="a" gradientUnits="userSpaceOnUse" x1="7.008" y1="3.528" x2="23.117" y2="26.534">
    <stop offset="0" stop-color="#717f90"/>
    <stop offset="1" stop-color="#5d6d7f"/>
  </linearGradient>
  <ellipse fill="url(#a)" stroke="#313843" stroke-width="1.5" stroke-miterlimit="10" cx="15.1" cy="15" rx="14.1" ry="14"/>
  <linearGradient id="b" gradientUnits="userSpaceOnUse" x1="9.42" y1="3.034" x2="20.58" y2="26.966">
    <stop offset="0" stop-color="#717f90" stop-opacity="0"/>
    <stop offset=".225" stop-color="#738192" stop-opacity=".225"/>
    <stop offset=".387" stop-color="#7a8697" stop-opacity=".387"/>
    <stop offset=".528" stop-color="#86909f" stop-opacity=".528"/>
    <stop offset=".657" stop-color="#989fac" stop-opacity=".657"/>
    <stop offset=".779" stop-color="#b1b5bf" stop-opacity=".779"/>
    <stop offset=".893" stop-color="#d1d3d8" stop-opacity=".893"/>
    <stop offset="1" stop-color="#fff"/>
  </linearGradient>
  <circle fill="none" stroke="url(#b)" stroke-miterlimit="10" cx="15" cy="15" r="12.7"/>
  <linearGradient id="c" gradientUnits="userSpaceOnUse" x1="11.805" y1="14.761" x2="15.857" y2="20.548">
    <stop offset="0" stop-color="#fff"/>
    <stop offset="1" stop-color="#bee5e9"/>
  </linearGradient>
  <linearGradient id="d" gradientUnits="userSpaceOnUse" x1="6.825" y1="7.649" x2="19.083" y2="25.156">
    <stop offset="0" stop-color="#a8b4bf"/>
    <stop offset="0" stop-color="#9fabb7"/>
    <stop offset="0" stop-color="#828f9d"/>
    <stop offset="0" stop-color="#6f7c8c"/>
    <stop offset="0" stop-color="#617081"/>
    <stop offset="0" stop-color="#59697b"/>
    <stop offset="0" stop-color="#576779"/>
  </linearGradient>
  <path fill="url(#c)" stroke="url(#d)" stroke-width=".5" stroke-miterlimit="10" d="M21.9 22.6h-1.6c-.4 0-.9-.3-.9-.9 0 0 .3-4-3.5-7.9-2.8-3.3-7.7-3.5-7.7-3.5-.6 0-.9-.3-.9-.8V8c0-.4.3-.8.9-.8 0 0 6.9.4 10.6 4.9 3.6 3.4 4 9.7 4 9.7-.1.5-.3.8-.9.8zM8.2 12.7s4.1.6 6.4 2.6c2.3 2.2 2.8 6.5 2.8 6.5 0 .4-.1.9-.6.9h-1.6c-.4 0-.7-.3-.7-.9 0 0 .1-2.6-2-4.6-1.6-1.4-4.3-1.5-4.3-1.5-.6 0-.9-.3-.9-.8v-1.4c0-.4.3-.8.9-.8zm1.3 5.5c1.2 0 2.2 1 2.2 2.2 0 1.2-1 2.2-2.2 2.2s-2.2-1-2.2-2.2c0-1.2 1-2.2 2.2-2.2z"/>
</svg>
