<svg xmlns="http://www.w3.org/2000/svg" viewBox="0 0 30 30">
  <linearGradient id="a" gradientUnits="userSpaceOnUse" x1="7.008" y1="3.528" x2="23.117" y2="26.534">
    <stop offset="0" stop-color="#bcc6d1"/>
    <stop offset="1" stop-color="#56687b"/>
  </linearGradient>
  <ellipse fill="url(#a)" stroke="#313843" stroke-width="1.5" stroke-miterlimit="10" cx="15.1" cy="15" rx="14.1" ry="14"/>
  <g>
    <linearGradient id="b" gradientUnits="userSpaceOnUse" x1="13.696" y1="13.082" x2="16.657" y2="17.311">
      <stop offset="0" stop-color="#fff"/>
      <stop offset="1" stop-color="#d6dde3"/>
    </linearGradient>
    <linearGradient id="c" gradientUnits="userSpaceOnUse" x1="8.878" y1="6.201" x2="21.3" y2="23.941">
      <stop offset="0" stop-color="#a8b4bf"/>
      <stop offset=".032" stop-color="#a0acb8"/>
      <stop offset=".195" stop-color="#838f9e"/>
      <stop offset=".366" stop-color="#6f7c8c"/>
      <stop offset=".549" stop-color="#617081"/>
      <stop offset=".749" stop-color="#59697b"/>
      <stop offset="1" stop-color="#576779"/>
    </linearGradient>
    <path fill="url(#b)" stroke="url(#c)" stroke-width=".5" stroke-miterlimit="10" d="M23.4 15.9c-.1.7-.2 1.4-.5 2-.5 1.6-1.4 3-3 4 .5.5 1.6 1.1 1.6 1.1l-4.9.4h-.1s-2.4-.4-3.6-.7c.8-.7 1.4-1.6 1.9-2.5.7-1.4.7-3.6.7-3.6s1.1 1.8 1.7 2.5c1.4-.7 2.4-2.2 2.5-3.6.1-1.1-.2-2-.7-2.8-.5-.8-1.2-1.3-2-1.7.2-.5.6-1.1 1-1.6.4-.7 1-1.1 1.5-1.4 2.5 1.3 4.3 4.5 3.9 7.9zM15 13.5s-1.3-1.8-1.9-2.4c-1.7.8-2.6 2.4-2.6 4.1.1 1.8 1.3 3.2 2.9 4-.4.6-.7 1.2-1.2 1.7-.5.6-1.1 1-1.4 1.3-2.8-1.7-4.4-4.8-4-8.2.1-.8.4-1.7.6-2.4.5-1.3 1.3-2.4 2.5-3.2.1-.1.2-.1.4-.2-.5-.5-1.9-1-1.9-1s3-1 8.2-.4c-1.7 2.3-1.6 6.7-1.6 6.7z"/>
  </g>
</svg>
